<?xml version="1.0" encoding="utf-8"?>
<!-- Generator: Adobe Illustrator 25.4.1, SVG Export Plug-In . SVG Version: 6.00 Build 0)  -->
<svg version="1.1" id="Layer_1" xmlns="http://www.w3.org/2000/svg" xmlns:xlink="http://www.w3.org/1999/xlink" x="0px" y="0px"
	 viewBox="0 0 200 200" style="enable-background:new 0 0 200 200;" xml:space="preserve">
<style type="text/css">
	.st0{fill:#FFFFFF;}
	.st1{fill:#1A73E8;}
	.st2{fill:#EA4335;}
	.st3{fill:#4285F4;}
	.st4{fill:#FBBC04;}
	.st5{fill:#34A853;}
</style>
<circle class="st0" cx="100" cy="100" r="100"/>
<g>
	<path class="st1" d="M114,36c-4.4-1.4-9.2-2.2-14.1-2.2c-14.1,0-26.8,6.4-35.3,16.5l21.8,18.3L114,36z"/>
	<path class="st2" d="M64.6,50.3c-6.7,8-10.8,18.4-10.8,29.6c0,8.7,1.7,15.7,4.6,22l28-33.3C86.4,68.6,64.6,50.3,64.6,50.3z"/>
	<path class="st3" d="M100,62.3c9.8,0,17.7,7.9,17.7,17.7c0,4.3-1.6,8.3-4.2,11.4c0,0,13.9-16.6,27.5-32.7
		c-5.6-10.8-15.3-19-27-22.7L86.4,68.6C89.7,64.8,94.5,62.3,100,62.3"/>
	<path class="st4" d="M100,97.6c-9.8,0-17.7-7.9-17.7-17.7c0-4.3,1.5-8.3,4.1-11.3l-28,33.3c4.8,10.6,12.8,19.2,21,29.9l34.1-40.5
		C110.2,95.2,105.4,97.6,100,97.6"/>
	<path class="st5" d="M112.9,143c15.4-24.1,33.3-35,33.3-63c0-7.7-1.9-14.9-5.2-21.3l-61.6,73.1c2.6,3.4,5.3,7.3,7.9,11.3
		c9.4,14.5,6.8,23.1,12.8,23.1S103.5,157.5,112.9,143"/>
</g>
</svg>
