<?xml version="1.0" encoding="utf-8"?>
<!-- Generator: Adobe Illustrator 25.4.1, SVG Export Plug-In . SVG Version: 6.00 Build 0)  -->
<svg version="1.1" id="Layer_1" xmlns="http://www.w3.org/2000/svg" xmlns:xlink="http://www.w3.org/1999/xlink" x="0px" y="0px"
	 viewBox="0 0 200 200" style="enable-background:new 0 0 200 200;" xml:space="preserve">
<style type="text/css">
	.st0{fill:#FFFFFF;}
	.st1{fill:#FF5C28;}
</style>
<circle class="st0" cx="100" cy="100" r="100"/>
<path class="st1" d="M153.7,99.2c4.3-23.7-10.1-44.9-32.7-52c-40.1-12.5-68.6,24.3-68.3,61.4c0.3,30,6.7,49.9,6.7,49.9
	c-0.3-0.9,7.6-5,8.5-5.5c0.8-0.4,1.6-0.8,2.3-1.1c0.8-0.4,1.6-0.7,2.4-1c0.8-0.3,1.6-0.6,2.4-0.9c0.8-0.3,1.6-0.6,2.5-0.9
	c6.8-2.3,13.8-3.7,20.7-5.2c21.7-5,45.1-14.3,53.4-36.9C152.5,104.4,153.2,101.8,153.7,99.2L153.7,99.2z"/>
</svg>
